<?xml version="1.0" encoding="UTF-8"?>
<svg width="35px" height="35px" viewBox="0 0 35 35" version="1.1" xmlns="http://www.w3.org/2000/svg" xmlns:xlink="http://www.w3.org/1999/xlink">
    <!-- Generator: Sketch 62 (91390) - https://sketch.com -->
    <title>Group 4</title>
    <desc>Created with Sketch.</desc>
    <g id="Page-1" stroke="none" stroke-width="1" fill="none" fill-rule="evenodd">
        <g id="Web-version-1" transform="translate(-41.000000, -144.000000)">
            <g id="Group-4" transform="translate(41.000000, 144.000000)">
                <circle id="Oval" fill="#FFFFFF" cx="17.5" cy="17.5" r="17.5"></circle>
                <g id="chatbot" transform="translate(3.000000, 3.000000)" fill-rule="nonzero">
                    <path d="M26.1981614,14.2858071 L26.1981614,13.8273088 C26.1981614,11.2724143 24.0982611,9.19361637 21.5170409,9.19361637 L17.5693297,9.19361637 C17.4232828,7.94948017 16.4244491,6.96083341 15.1674933,6.81627604 L15.1674933,4.53038395 C15.8081946,4.38645509 16.2888794,3.82079579 16.2888794,3.14389016 C16.2888794,2.3585665 15.6434156,1.72 14.85,1.72 C14.0565844,1.72 13.4114381,2.35888075 13.4114381,3.14389016 C13.4114381,3.82079579 13.8921228,4.38676934 14.5325067,4.53038395 L14.5325067,6.81627604 C13.2755509,6.96083341 12.2767172,7.94979442 12.1306703,9.19361637 L8.18327661,9.19361637 C5.60173895,9.19361637 3.50183856,11.2721 3.50183856,13.8273088 L3.50183856,14.2858071 C2.14042747,14.4423062 1.08,15.5890233 1.08,16.9777168 C1.08,18.3664104 2.14042747,19.5128133 3.50183856,19.6693123 L3.50183856,20.3063076 C3.50183856,22.8612021 5.60173895,24.94 8.18327661,24.94 L21.5170409,24.94 C24.0982611,24.94 26.1981614,22.8615163 26.1981614,20.3063076 L26.1981614,19.6693123 C27.5595725,19.5128133 28.62,18.3664104 28.62,16.9777168 C28.62,15.5890233 27.5595725,14.4423062 26.1981614,14.2858071 Z" id="Path" fill="#E6E7E8"></path>
                    <path d="M20.4605578,23.32 L7.0794422,23.32 C4.67098795,23.32 2.7,21.3759775 2.7,18.9997755 L2.7,12.5199102 C2.7,10.1440225 4.67066933,8.2 7.0794422,8.2 L20.4605578,8.2 C22.869012,8.2 24.84,10.1440225 24.84,12.5199102 L24.84,19.0000898 C24.8396814,21.3759775 22.869012,23.32 20.4605578,23.32 Z" id="Path" fill="#6DC9F7"></path>
                    <path d="M20.4605578,8.2 L7.0794422,8.2 C4.67098795,8.2 2.7,10.1945655 2.7,12.632547 L2.7,13.6 C2.7,11.1620185 4.67066933,9.16745297 7.0794422,9.16745297 L20.4605578,9.16745297 C22.8693307,9.16745297 24.84,11.1620185 24.84,13.6 L24.84,12.632547 C24.8396814,10.1945655 22.869012,8.2 20.4605578,8.2 Z" id="Path" fill="#FFFFFF"></path>
                    <path d="M7.05692937,21.16 C5.84529341,21.16 4.86,20.1909828 4.86,19.0000629 L4.86,12.5199371 C4.86,11.3287029 5.8456131,10.36 7.05692937,10.36 L20.4830706,10.36 C21.6947066,10.36 22.68,11.3290172 22.68,12.5199371 L22.68,19.0000629 C22.68,20.1912971 21.6943869,21.16 20.4830706,21.16 L7.05692937,21.16 Z" id="Path" fill="#FFD7E5"></path>
                    <path d="M2.7,13.06 L2.7,17.92 C1.50644992,17.92 0.54,16.8327438 0.54,15.49 C0.54,14.1472562 1.50644992,13.06 2.7,13.06 Z" id="Path" fill="#0089EF"></path>
                    <path d="M27,15.49 C27,16.8327438 26.0335501,17.92 24.84,17.92 L24.84,13.06 C26.0332669,13.06 27,14.1472562 27,15.49 Z" id="Path" fill="#0089EF"></path>
                    <path d="M13.7698407,6.04 C12.4271849,6.04 11.34,7.00644992 11.34,8.2 L16.2,8.2 C16.2,7.00644992 15.1124966,6.04 13.7698407,6.04 Z" id="Path" fill="#0089EF"></path>
                    <circle id="Oval" fill="#FA759E" cx="13.5" cy="1.72" r="1.08"></circle>
                    <g id="Group" fill="#3A2C60">
                        <path d="M9.38793447,13.2949054 C8.63892919,13.2949054 8.02596255,13.9107592 8.02596255,14.6632924 C8.02596255,15.4158256 8.63892919,16.0316794 9.38793447,16.0316794 C10.1369397,16.0316794 10.7499064,15.4158256 10.7499064,14.6632924 C10.7499064,13.9107592 10.1372569,13.2949054 9.38793447,13.2949054 Z" id="Path"></path>
                        <ellipse id="Oval" cx="18.2202986" cy="14.6632924" rx="1.36197191" ry="1.368387"></ellipse>
                        <path d="M14.9331738,17.5991914 C14.9166843,17.620219 14.5237894,18.115642 13.803958,18.115642 C13.070808,18.115642 12.698208,17.6300956 12.6791816,17.6052448 C12.5764391,17.464105 12.3795161,17.432245 12.2377695,17.5348342 C12.0957059,17.637742 12.0636781,17.836867 12.1661035,17.9795998 C12.188618,18.0111412 12.7334068,18.752842 13.8036409,18.752842 C14.8466037,18.752842 15.4132729,18.016876 15.4367387,17.9856532 C15.542018,17.8461064 15.5147469,17.6482558 15.3768056,17.5415248 C15.2394986,17.4357496 15.0403557,17.4606004 14.9331738,17.5991914 L14.9331738,17.5991914 Z" id="Path"></path>
                        <path d="M25.1382914,13.045123 L25.1382914,12.5802856 C25.1382914,9.9900676 23.0409498,7.8825286 20.4628749,7.8825286 L16.5199741,7.8825286 C16.3741052,6.6211912 15.3764885,5.6188756 14.1210643,5.4723196 L14.1210643,3.1548232 C14.760985,3.0089044 15.2410841,2.4354244 15.2410841,1.74916 C15.2410841,0.9529786 14.5964068,0.3052648 13.803958,0.3052648 C13.0115091,0.3052648 12.3671489,0.9529786 12.3671489,1.74916 C12.3671489,2.4354244 12.847248,3.0089044 13.4868516,3.1548232 L13.4868516,5.4723196 C12.2314274,5.6188756 11.2338107,6.6215098 11.0879418,7.8825286 L7.14535813,7.8825286 C4.56696613,7.8825286 2.46962451,9.989749 2.46962451,12.5802856 L2.46962451,13.045123 C1.10987234,13.2037858 0.0507370213,14.3660386 0.0507370213,15.7742506 C0.0507370213,17.182144 1.10987234,18.3443968 2.46962451,18.5030596 L2.46962451,19.1488618 C2.46962451,21.7390798 4.56696613,23.8466188 7.14535813,23.8466188 L20.4628749,23.8466188 C23.0409498,23.8466188 25.1382914,21.7393984 25.1382914,19.1488618 L25.1382914,18.5030596 C26.4980436,18.3443968 27.5571789,17.182144 27.5571789,15.7742506 C27.5571789,14.3660386 26.4980436,13.2037858 25.1382914,13.045123 Z M13.0013617,1.7494786 C13.0013617,1.304713 13.3615946,0.9427834 13.803958,0.9427834 C14.2466385,0.9427834 14.6068713,1.304713 14.6068713,1.7494786 C14.6068713,2.1942442 14.2466385,2.5558552 13.803958,2.5558552 C13.3615946,2.5558552 13.0013617,2.1942442 13.0013617,1.7494786 L13.0013617,1.7494786 Z M13.803958,6.0897664 C14.8548485,6.0897664 15.7284766,6.869062 15.8819561,7.8828472 L11.7262769,7.8828472 C11.8794393,6.869062 12.7530674,6.0897664 13.803958,6.0897664 Z M0.684949787,15.7742506 C0.684949787,14.7180916 1.460592,13.8406672 2.46962451,13.6864648 L2.46962451,17.8620364 C1.460592,17.7075154 0.684949787,16.830091 0.684949787,15.7742506 Z M24.5040786,19.1488618 C24.5040786,21.387664 22.6911814,23.2094188 20.4628749,23.2094188 L7.14535813,23.2094188 C4.91705157,23.2094188 3.10383728,21.3879826 3.10383728,19.1488618 L3.10383728,18.2045314 L3.10383728,13.3436512 L3.10383728,12.5802856 C3.10383728,10.3414834 4.91705157,8.5197286 7.14535813,8.5197286 L11.3850705,8.5197286 L16.2228454,8.5197286 L20.4628749,8.5197286 C22.6911814,8.5197286 24.5040786,10.3411648 24.5040786,12.5802856 L24.5040786,13.3436512 L24.5040786,18.2042128 L24.5040786,19.1488618 Z M25.1382914,17.8617178 L25.1382914,13.6861462 C26.1473239,13.8403486 26.9229661,14.717773 26.9229661,15.773932 C26.9229661,16.830091 26.1473239,17.7075154 25.1382914,17.8617178 Z" id="Shape"></path>
                    </g>
                </g>
            </g>
        </g>
    </g>
</svg>