<?xml version="1.0" encoding="UTF-8"?>
<svg width="42px" height="42px" viewBox="0 0 42 42" version="1.1" xmlns="http://www.w3.org/2000/svg" xmlns:xlink="http://www.w3.org/1999/xlink">
    <!-- Generator: Sketch 62 (91390) - https://sketch.com -->
    <title>Group 5</title>
    <desc>Created with Sketch.</desc>
    <g id="Page-1" stroke="none" stroke-width="1" fill="none" fill-rule="evenodd">
        <g id="Web-version-1" transform="translate(-38.000000, -201.000000)">
            <g id="Group-5" transform="translate(38.000000, 201.000000)">
                <g id="Group-2">
                    <circle id="Oval-Copy" fill="#EDEDED" opacity="0.499418713" cx="21" cy="21" r="21"></circle>
                    <g id="chatbot-copy" transform="translate(4.000000, 3.000000)" fill-rule="nonzero">
                        <path d="M31.4377937,17.1429685 L31.4377937,16.5927706 C31.4377937,13.5268972 28.9179133,11.0323396 25.8204491,11.0323396 L21.0831957,11.0323396 C20.9079394,9.5393762 19.7093389,8.35300009 18.2009919,8.17953124 L18.2009919,5.43646075 C18.9698336,5.26374611 19.5466553,4.58495495 19.5466553,3.77266819 C19.5466553,2.8302798 18.7720988,2.064 17.82,2.064 C16.8679012,2.064 16.0937257,2.8306569 16.0937257,3.77266819 C16.0937257,4.58495495 16.6705474,5.26412321 17.4390081,5.43646075 L17.4390081,8.17953124 C15.9306611,8.35300009 14.7320606,9.53975331 14.5568043,11.0323396 L9.81993194,11.0323396 C6.72208674,11.0323396 4.20220627,13.5265201 4.20220627,16.5927706 L4.20220627,17.1429685 C2.56851297,17.3307674 1.296,18.7068279 1.296,20.3732602 C1.296,22.0396925 2.56851297,23.4153759 4.20220627,23.6031748 L4.20220627,24.3675691 C4.20220627,27.4334425 6.72208674,29.928 9.81993194,29.928 L25.8204491,29.928 C28.9179133,29.928 31.4377937,27.4338196 31.4377937,24.3675691 L31.4377937,23.6031748 C33.071487,23.4153759 34.344,22.0396925 34.344,20.3732602 C34.344,18.7068279 33.071487,17.3307674 31.4377937,17.1429685 Z" id="Path" fill="#E6E7E8"></path>
                        <path d="M24.5526694,27.984 L8.49533064,27.984 C5.60518555,27.984 3.24,25.6511731 3.24,22.7997306 L3.24,15.0238922 C3.24,12.1728269 5.6048032,9.84 8.49533064,9.84 L24.5526694,9.84 C27.4428145,9.84 29.808,12.1728269 29.808,15.0238922 L29.808,22.8001078 C29.8076177,25.6511731 27.4428145,27.984 24.5526694,27.984 Z" id="Path" fill="#6DC9F7"></path>
                        <path d="M24.5526694,9.84 L8.49533064,9.84 C5.60518555,9.84 3.24,12.2334787 3.24,15.1590564 L3.24,16.32 C3.24,13.3944222 5.6048032,11.0009436 8.49533064,11.0009436 L24.5526694,11.0009436 C27.4431968,11.0009436 29.808,13.3944222 29.808,16.32 L29.808,15.1590564 C29.8076177,12.2334787 27.4428145,9.84 24.5526694,9.84 Z" id="Path" fill="#FFFFFF"></path>
                        <path d="M8.46831524,25.392 C7.01435209,25.392 5.832,24.2291794 5.832,22.8000754 L5.832,15.0239246 C5.832,13.5944435 7.01473572,12.432 8.46831524,12.432 L24.5796848,12.432 C26.0336479,12.432 27.216,13.5948206 27.216,15.0239246 L27.216,22.8000754 C27.216,24.2295565 26.0332643,25.392 24.5796848,25.392 L8.46831524,25.392 Z" id="Path" fill="#FFD7E5"></path>
                        <path d="M3.24,15.672 L3.24,21.504 C1.80773991,21.504 0.648,20.1992926 0.648,18.588 C0.648,16.9767074 1.80773991,15.672 3.24,15.672 Z" id="Path" fill="#0089EF"></path>
                        <path d="M32.4,18.588 C32.4,20.1992926 31.2402601,21.504 29.808,21.504 L29.808,15.672 C31.2399203,15.672 32.4,16.9767074 32.4,18.588 Z" id="Path" fill="#0089EF"></path>
                        <path d="M16.5238089,7.248 C14.9126219,7.248 13.608,8.40773991 13.608,9.84 L19.44,9.84 C19.44,8.40773991 18.1349959,7.248 16.5238089,7.248 Z" id="Path" fill="#0089EF"></path>
                        <circle id="Oval" fill="#FA759E" cx="16.2" cy="2.064" r="1.296"></circle>
                        <g id="Group" fill="#3A2C60">
                            <path d="M11.2655214,15.9538865 C10.366715,15.9538865 9.63115506,16.692911 9.63115506,17.5959509 C9.63115506,18.4989907 10.366715,19.2380153 11.2655214,19.2380153 C12.1643277,19.2380153 12.8998877,18.4989907 12.8998877,17.5959509 C12.8998877,16.692911 12.1647082,15.9538865 11.2655214,15.9538865 Z" id="Path"></path>
                            <ellipse id="Oval" cx="21.8643583" cy="17.5959509" rx="1.6343663" ry="1.6420644"></ellipse>
                            <path d="M17.9198085,21.1190297 C17.9000211,21.1442628 17.4285473,21.7387704 16.5647495,21.7387704 C15.6849696,21.7387704 15.2378496,21.1561147 15.2150179,21.1262938 C15.091727,20.956926 14.8554193,20.918694 14.6853234,21.041801 C14.514847,21.1652904 14.4764138,21.4042404 14.5993242,21.5755198 C14.6263417,21.6133694 15.2800882,22.5034104 16.564369,22.5034104 C17.8159245,22.5034104 18.4959274,21.6202512 18.5240865,21.5827838 C18.6504217,21.4153277 18.6176963,21.177907 18.4521667,21.0498298 C18.2873983,20.9228995 18.0484269,20.9527205 17.9198085,21.1190297 L17.9198085,21.1190297 Z" id="Path"></path>
                            <path d="M30.1659497,15.6541476 L30.1659497,15.0963427 C30.1659497,11.9880811 27.6491397,9.45903432 24.5554499,9.45903432 L19.823969,9.45903432 C19.6489262,7.94542944 18.4517862,6.74265072 16.9452772,6.56678352 L16.9452772,3.78578784 C17.713182,3.61068528 18.2893009,2.92250928 18.2893009,2.098992 C18.2893009,1.14357432 17.5156882,0.36631776 16.5647495,0.36631776 C15.6138109,0.36631776 14.8405787,1.14357432 14.8405787,2.098992 C14.8405787,2.92250928 15.4166976,3.61068528 16.1842219,3.78578784 L16.1842219,6.56678352 C14.6777129,6.74265072 13.4805729,7.94581176 13.3055301,9.45903432 L8.57442975,9.45903432 C5.48035935,9.45903432 2.96354941,11.9876988 2.96354941,15.0963427 L2.96354941,15.6541476 C1.33184681,15.844543 0.0608844255,17.2392463 0.0608844255,18.9291007 C0.0608844255,20.6185728 1.33184681,22.0132762 2.96354941,22.2036715 L2.96354941,22.9786342 C2.96354941,26.0868958 5.48035935,28.6159426 8.57442975,28.6159426 L24.5554499,28.6159426 C27.6491397,28.6159426 30.1659497,26.0872781 30.1659497,22.9786342 L30.1659497,22.2036715 C31.7976523,22.0132762 33.0686147,20.6185728 33.0686147,18.9291007 C33.0686147,17.2392463 31.7976523,15.844543 30.1659497,15.6541476 Z M15.601634,2.09937432 C15.601634,1.5656556 16.0339135,1.13134008 16.5647495,1.13134008 C17.0959662,1.13134008 17.5282456,1.5656556 17.5282456,2.09937432 C17.5282456,2.63309304 17.0959662,3.06702624 16.5647495,3.06702624 C16.0339135,3.06702624 15.601634,2.63309304 15.601634,2.09937432 L15.601634,2.09937432 Z M16.5647495,7.30771968 C17.8258182,7.30771968 18.8741719,8.2428744 19.0583473,9.45941664 L14.0715323,9.45941664 C14.2553272,8.2428744 15.3036809,7.30771968 16.5647495,7.30771968 Z M0.821939745,18.9291007 C0.821939745,17.6617099 1.7527104,16.6088006 2.96354941,16.4237578 L2.96354941,21.4344437 C1.7527104,21.2490185 0.821939745,20.1961092 0.821939745,18.9291007 Z M29.4048944,22.9786342 C29.4048944,25.6651968 27.2294177,27.8513026 24.5554499,27.8513026 L8.57442975,27.8513026 C5.90046189,27.8513026 3.72460473,25.6655791 3.72460473,22.9786342 L3.72460473,21.8454377 L3.72460473,16.0123814 L3.72460473,15.0963427 C3.72460473,12.4097801 5.90046189,10.2236743 8.57442975,10.2236743 L13.6620846,10.2236743 L19.4674145,10.2236743 L24.5554499,10.2236743 C27.2294177,10.2236743 29.4048944,12.4093978 29.4048944,15.0963427 L29.4048944,16.0123814 L29.4048944,21.8450554 L29.4048944,22.9786342 Z M30.1659497,21.4340614 L30.1659497,16.4233754 C31.3767887,16.6084183 32.3075594,17.6613276 32.3075594,18.9287184 C32.3075594,20.1961092 31.3767887,21.2490185 30.1659497,21.4340614 Z" id="Shape"></path>
                        </g>
                    </g>
                </g>
            </g>
        </g>
    </g>
</svg>