<svg xmlns="http://www.w3.org/2000/svg" width="21" height="24" viewBox="0 0 21 24"><g><g opacity=".3"><path d="M19.282 1.748a5.81 5.81 0 0 0-8.308 0L2.226 10.65a.712.712 0 0 0 0 .995c.27.275.708.275.978 0l8.747-8.902c1.698-1.727 4.656-1.727 6.354 0 1.751 1.782 1.751 4.683 0 6.465L6.09 21.778c-1.045 1.064-2.865 1.064-3.91 0a2.851 2.851 0 0 1 0-3.978L13.906 5.726a1.048 1.048 0 0 1 1.466 0 1.07 1.07 0 0 1 0 1.493L4.136 18.795c-.234.237-.234.757 0 .994.27.275.707.275.977 0L16.35 8.213a2.495 2.495 0 0 0 0-3.481c-.914-.93-2.508-.929-3.42 0L1.202 16.806c-1.604 1.632-1.604 4.335 0 5.967A4.075 4.075 0 0 0 4.136 24c1.107 0 2.148-.43 2.931-1.227l12.215-12.57c2.29-2.332 2.29-6.124 0-8.455z"/></g></g></svg>