<?xml version="1.0" encoding="UTF-8"?>
<svg width="77px" height="77px" viewBox="0 0 77 77" version="1.1" xmlns="http://www.w3.org/2000/svg" xmlns:xlink="http://www.w3.org/1999/xlink">
    <!-- Generator: Sketch 62 (91390) - https://sketch.com -->
    <title>Group 3</title>
    <desc>Created with Sketch.</desc>
    <defs>
        <circle id="path-1" cx="30.5" cy="30.5" r="30.5"></circle>
        <filter x="-21.3%" y="-18.0%" width="142.6%" height="142.6%" filterUnits="objectBoundingBox" id="filter-2">
            <feMorphology radius="0.5" operator="dilate" in="SourceAlpha" result="shadowSpreadOuter1"></feMorphology>
            <feOffset dx="0" dy="2" in="shadowSpreadOuter1" result="shadowOffsetOuter1"></feOffset>
            <feGaussianBlur stdDeviation="3.5" in="shadowOffsetOuter1" result="shadowBlurOuter1"></feGaussianBlur>
            <feColorMatrix values="0 0 0 0 1   0 0 0 0 1   0 0 0 0 1  0 0 0 0.3 0" type="matrix" in="shadowBlurOuter1"></feColorMatrix>
        </filter>
    </defs>
    <g id="Page-1" stroke="none" stroke-width="1" fill="none" fill-rule="evenodd">
        <g id="Web-version-1" transform="translate(-425.000000, -635.000000)">
            <g id="Group-3" transform="translate(433.000000, 641.000000)">
                <g id="Group">
                    <g id="Oval">
                        <use fill="black" fill-opacity="1" filter="url(#filter-2)" xlink:href="#path-1"></use>
                        <use fill="#1968FC" fill-rule="evenodd" xlink:href="#path-1"></use>
                    </g>
                    <polygon id="Path-2" fill="#1968FC" points="58 43 58 58 43 58"></polygon>
                </g>
                <g id="chat-bubble" transform="translate(15.000000, 15.000000)" fill="#FFFFFF" fill-rule="nonzero">
                    <path d="M9.70712401,23.7071313 C9.31662269,24.0976229 8.68344411,24.0976229 8.29287599,23.7071313 C7.90237467,23.3166398 7.90237467,22.6834771 8.29287599,22.2929188 C8.68344411,21.9023604 9.31662269,21.9023604 9.70712401,22.2929188 C10.0976253,22.6834103 10.0976253,23.316573 9.70712401,23.7071313 Z" id="path-1_59_"></path>
                    <path d="M12.707124,22.2929188 C13.0976253,22.6834103 13.0976253,23.316573 12.707124,23.7071313 C12.3166227,24.0976229 11.6834441,24.0976229 11.292876,23.7071313 C10.9023747,23.3166398 10.9023747,22.6834771 11.292876,22.2929188 C11.6833773,21.9023604 12.3165559,21.9023604 12.707124,22.2929188" id="path-1_58_"></path>
                    <path d="M15.707124,22.2929188 C16.0976253,22.6834103 16.0976253,23.316573 15.707124,23.7071313 C15.3166227,24.0976229 14.6834441,24.0976229 14.292876,23.7071313 C13.9023747,23.3166398 13.9023747,22.6834771 14.292876,22.2929188 C14.6834441,21.9023604 15.3165559,21.9023604 15.707124,22.2929188" id="path-1_57_"></path>
                    <path d="M28.9289841,17.8717256 C28.5798764,17.5226141 28.5666757,16.9625474 28.8996707,16.5396663 C30.2733238,14.792297 31,12.7583262 31,10.6562156 C31,4.78033603 25.3501611,0 18.4063153,0 C11.4624694,0 5.81268391,4.78040074 5.81268391,10.6562156 C5.81268391,10.8915666 5.85112135,11.1177934 5.87169897,11.3482264 C2.34962618,13.2396406 0,16.5602441 0,20.3437197 C0,22.4458303 0.726776907,24.479801 2.10042994,26.2271703 C2.43342497,26.6500515 2.42015953,27.2101182 2.07111654,27.5592297 L0.284034582,29.3462663 C0.00681913091,29.6234848 -0.0763972721,30.0397007 0.0739875806,30.4020778 C0.2234665,30.7643902 0.577297987,31 0.968919815,31 L12.5937854,31 C19.1511862,31 24.5482164,26.7354689 25.1293076,21.312496 L30.0310514,21.312496 C30.422738,21.312496 30.7765047,21.0769509 30.9259837,20.7145738 C31.0764332,20.3522614 30.9931521,19.9359807 30.7159367,19.6587623 L28.9289841,17.8717256 Z M12.5938501,29.0624474 L3.30758546,29.0624474 L3.44095172,28.9290797 C4.4787625,27.8922283 4.55634918,26.2148754 3.6235619,25.0295141 C2.52045923,23.6275031 1.93775029,22.006901 1.93775029,20.3437844 C1.93775029,15.5360112 6.71803437,11.6250566 12.5938501,11.6250566 C18.4696658,11.6250566 23.2499499,15.5360112 23.2499499,20.3437844 C23.2499499,25.1515575 18.4696658,29.0624474 12.5938501,29.0624474 Z M25.1293723,19.3749859 C24.5482811,13.9519704 19.1512509,9.68743933 12.5938501,9.68743933 C10.8814429,9.68743933 9.24914604,9.98044708 7.75940418,10.5067351 C7.85828028,5.76846067 12.592103,1.93748787 18.4063153,1.93748787 C24.282131,1.93748787 29.0624151,5.84844247 29.0624151,10.6562156 C29.0624151,12.3193323 28.4796414,13.9399343 27.3766035,15.3419454 C26.4438162,16.5273067 26.5214029,18.2046596 27.5592137,19.241511 L27.6925799,19.3749859 C27.6925152,19.3749859 25.1293723,19.3749859 25.1293723,19.3749859 L25.1293723,19.3749859 Z" id="Shape"></path>
                </g>
            </g>
        </g>
    </g>
</svg>